<?xml version="1.0" encoding="utf-8"?>
<!-- Generator: Adobe Illustrator 27.1.1, SVG Export Plug-In . SVG Version: 6.00 Build 0)  -->
<svg version="1.1" id="Calque_1" xmlns="http://www.w3.org/2000/svg" xmlns:xlink="http://www.w3.org/1999/xlink" x="0px" y="0px"
	 viewBox="0 0 473.8 233" style="enable-background:new 0 0 473.8 233;" xml:space="preserve">
<style type="text/css">
	.st0{fill:#0A1B51;}
	.st1{fill:#EB172B;}
	.st2{fill:#306EF3;}
	.st3{fill:#FFFFFF;}
	.st4{fill:#EC1027;}
	.st5{fill:#2C6EF3;}
</style>
<g>
	<path class="st3" d="M382.3,177.9l0,8.6c0,0,3.1,0.8,8,0.7c4.9,0,8-0.8,8-0.8l0-2.9c0,0-3.4,0.7-8.1,0.7c-2.3,0-3.8-0.2-4.6-0.3
		c0-0.7,0-2.7,0-3.4c0.9-0.1,2.4-0.4,4.6-0.4c4.5,0,8,0.7,8,0.7l0-2.9c0,0-3.1-0.8-8-0.7C385.4,177.1,382.3,177.9,382.3,177.9"/>
	
		<rect x="402.2" y="177.1" transform="matrix(1 -5.620668e-03 5.620668e-03 1 -1.0167 2.2736)" class="st3" width="3.5" height="9.8"/>
	
		<rect x="355.1" y="177.4" transform="matrix(1 -5.620668e-03 5.620668e-03 1 -1.0189 2.0086)" class="st3" width="3.5" height="9.8"/>
	<path class="st3" d="M375,187.1c0,0-2.5-2-6.3-4c-1-0.5-1.9-0.9-2.8-1.2l0,5.2l-3.4,0l-0.1-9.8c0,0,2.9,0.5,6.2,2.2
		c3.8,1.9,6.3,3.8,6.3,3.8l0-6.1l3.4,0l0.1,9.8L375,187.1z"/>
	<path class="st3" d="M352.7,179.6l-8.7,7.9l-8.8-7.8l2.6-2.4c0,0,5.4,5.1,6.2,5.8c0.8-0.7,6.1-5.9,6.1-5.9L352.7,179.6z"/>
	<path class="st4" d="M413.7,177.1l4.9,0c1.8,0,2.9-0.9,3.3-1.4c0.4-0.4,1.4-1.5,1.4-2.8l0-4.1c0-0.8,0.6-1.4,1.3-1.4l5.3,0
		c0.8,0,1.4,0.6,1.4,1.3l0,5.4c0,0.8-0.6,1.4-1.3,1.4l-4.1,0c-1.2,0-2.3,1-2.8,1.4c-0.4,0.4-1.3,1.5-1.3,3.3l0,4.9l-8.1,0
		L413.7,177.1"/>
	<path class="st4" d="M441.5,181.2c0-1.3-0.5-2.5-1.4-3.3c-0.8-0.8-2-1.3-3.3-1.3c-2.6,0-4.8,2.2-4.7,4.8c0,0.5,0.2,1.4,0.2,1.8
		c0,2-1.6,3.7-3.6,3.7l-3.9,0c-0.8,0-1.4,0.6-1.3,1.4l0,5.3c0,0.8,0.6,1.4,1.4,1.3l5.3,0c0.8,0,1.4-0.6,1.3-1.4l0-3.9
		c0-2,1.6-3.7,3.6-3.7c0.4,0,1.3,0.2,1.8,0.2C439.4,186,441.5,183.9,441.5,181.2"/>
	<path class="st5" d="M258.5,161.7c-8.3,11.2-16.8,17.1-25.2,17.2c-0.1,0-0.3,0-0.4,0c-10.4,0-20-8.7-26.8-17.2h-16.2
		c7.1,11.3,22.3,30.4,42.9,30.4c0.2,0,0.5,0,0.7,0c15.5-0.3,29.8-11.6,42.8-33.6c-5,2.1-10.7,3.2-17,3.2
		C259,161.7,258.7,161.7,258.5,161.7z"/>
	<path class="st5" d="M159.7,94.1h14.2c-22.3-47.5-45-54.2-60.3-51C96.1,46.7,83.8,62.3,83,75.7h12.9c1.1-8.2,8.8-17.6,20.4-20
		C130.4,52.7,145.7,66.3,159.7,94.1z"/>
	<g>
		<g>
			<path class="st3" d="M147.9,105.5c-4.1-2.2-9-3.3-14.7-3.3c-8.8,0-15.5,2.4-20.2,7.1c-4.7,4.7-7.1,11.1-7.1,19.2
				c0,8.2,2.7,14.6,8,19.2c5.3,4.6,12.6,6.9,21.7,6.9c3.6,0,7.3-0.3,10.9-0.9c3.7-0.6,6.6-1.4,9-2.4v-9.9c-2.5,1-5.3,1.7-8.6,2.3
				c-3.3,0.5-6.5,0.8-9.6,0.8c-11.8,0-18.2-3.7-19.1-11h42v-5.9c0-4.9-1-9.2-3.1-13C155,110.6,152,107.6,147.9,105.5z M118.2,124.5
				c0.1-3.8,1.5-6.7,4.1-8.9c2.6-2.2,6.2-3.3,10.7-3.3c4.6,0,8.2,1.1,10.8,3.2c2.6,2.1,4,5.1,4.2,9H118.2z"/>
			<path class="st3" d="M274.4,105.4c-4.3-2.2-9.4-3.2-15.1-3.2c-5.7,0-10.8,1.1-15.2,3.2c-4.4,2.2-7.7,5.2-10.1,9.1
				c-2.4,3.9-3.5,8.5-3.5,13.8c0,5.4,1.2,10.1,3.6,14c2.4,3.9,5.8,6.9,10.1,9c4.3,2.1,9.4,3.1,15.1,3.1c5.7,0,10.8-1,15.1-3.1
				c4.3-2.1,7.7-5.1,10.1-9c2.4-3.9,3.6-8.6,3.6-14c0-5.3-1.2-9.9-3.6-13.8C282.1,110.6,278.7,107.6,274.4,105.4z M270.5,139.9
				c-2.8,3-6.6,4.5-11.3,4.5c-4.7,0-8.5-1.5-11.3-4.5c-2.8-3-4.2-6.8-4.2-11.5c0-5,1.4-8.9,4.2-11.7c2.8-2.8,6.5-4.3,11.3-4.3
				c4.8,0,8.6,1.4,11.3,4.3c2.8,2.8,4.2,6.8,4.2,11.7C274.7,133,273.3,136.9,270.5,139.9z"/>
			<path class="st3" d="M343.7,105.4c-3.9-2.2-8.4-3.2-13.4-3.2c-4,0-7.6,0.6-10.8,1.8c-3.1,1.2-6.1,3.1-8.7,5.6v-5.9h-12.5v71.7
				h12.9v-27.3c2.3,2.1,5.1,3.7,8.5,4.8c3.3,1.1,6.9,1.6,10.6,1.6c5,0,9.5-1.1,13.4-3.3c3.9-2.2,7-5.3,9.2-9.3
				c2.2-4,3.3-8.5,3.3-13.6c0-5.2-1.1-9.8-3.3-13.7C350.7,110.6,347.6,107.6,343.7,105.4z M338.6,139.8c-3,3-6.8,4.5-11.5,4.5
				c-3.7,0-7-1-9.9-3c-2.9-2-4.9-4.7-6-8.1v-9.9c1.2-3.3,3.2-6,6.1-8c2.9-2,6.2-3,9.8-3c4.6,0,8.5,1.5,11.5,4.4
				c3,2.9,4.5,6.8,4.5,11.5C343.2,132.9,341.6,136.8,338.6,139.8z"/>
			<path class="st3" d="M404.4,132.8c-1-1.9-2.7-3.6-5.1-4.9c-2.4-1.4-5.7-2.6-9.9-3.8c-4-1-6.7-1.8-8.2-2.3
				c-1.5-0.5-2.7-1.1-3.6-1.8c-0.9-0.7-1.4-1.7-1.4-2.9c0-1.8,0.9-3.1,2.6-3.7c1.7-0.6,4.2-1,7.6-1c3.1,0,6.1,0.4,9,1.1
				c2.9,0.8,5.4,1.7,7.5,3v-10.6c-1.9-1.2-4.6-2.1-7.9-2.7c-3.4-0.6-6.8-1-10.2-1c-6.6,0-11.9,1.2-15.8,3.7
				c-3.9,2.5-5.8,6.2-5.8,11.1c0,3,0.6,5.5,1.8,7.3c1.2,1.9,3,3.4,5.3,4.7c2.4,1.2,5.6,2.4,9.7,3.6c3.6,1,6.3,1.8,8.1,2.4
				c1.7,0.7,3,1.4,3.8,2.2c0.8,0.8,1.2,1.8,1.2,3c0,1.6-0.8,2.7-2.3,3.2c-1.5,0.6-3.9,0.9-7.2,0.9c-3.3,0-6.8-0.5-10.5-1.5
				c-3.7-1-6.9-2.3-9.5-3.9v11c2.3,1.4,5.4,2.6,9.4,3.4c4,0.8,7.8,1.2,11.4,1.2c7,0,12.4-1.3,16.2-3.9c3.7-2.6,5.6-6.1,5.6-10.5
				C405.9,137.1,405.4,134.8,404.4,132.8z"/>
			<path class="st3" d="M82.7,108.5c-4.7-4.2-11-6.4-19.1-6.4c-5,0-9.5,1.1-13.4,3.3c-3.9,2.2-7,5.3-9.2,9.3
				c-2.2,4-3.3,8.5-3.3,13.6c0,5.2,1.1,9.8,3.3,13.7c2.2,3.9,5.3,7,9.2,9.1c3.9,2.2,8.4,3.2,13.4,3.2c4.2,0,7.8-0.6,10.8-1.7
				c3-1.1,5.9-3,8.7-5.6v5.7h12.5l0-70.2H82.9L82.7,108.5z M82.7,133.3c-1.2,3.4-3.2,6-6.1,8c-2.9,2-6.2,3-9.8,3
				c-4.7,0-8.5-1.5-11.5-4.4c-3-2.9-4.5-6.8-4.5-11.5c0-4.7,1.5-8.6,4.5-11.6c3-3,6.8-4.5,11.5-4.5c3.7,0,7,1,9.9,3
				c2.9,2,4.9,4.7,6,8.1V133.3z"/>
			<path class="st3" d="M223.4,102.2h-14.3l-15.6,37.2l-16.3-37.2h-14.4l22.5,51.3c0,0,0.3,0.6,0.5,1h15.7L223.4,102.2z"/>
		</g>
	</g>
</g>
</svg>
