<?xml version="1.0" encoding="utf-8"?>
<!-- Generator: Adobe Illustrator 27.1.1, SVG Export Plug-In . SVG Version: 6.00 Build 0)  -->
<svg version="1.1" id="Calque_1" xmlns="http://www.w3.org/2000/svg" xmlns:xlink="http://www.w3.org/1999/xlink" x="0px" y="0px"
	 viewBox="0 0 246.8 165.4" style="enable-background:new 0 0 246.8 165.4;" xml:space="preserve">
<style type="text/css">
	.st0{fill:#306EF3;}
	.st1{fill:#0A1B51;}
	.st2{fill:#FFFFFF;}
	.st3{fill:#B3B3B3;}
	.st4{fill:#666666;}
	.st5{fill:#EB172B;}
</style>
<path class="st1" d="M113.8,111l0-67.2h-12.3l-0.1,24.6c-4.5-4.1-10.5-6.1-18.3-6.1c-4.8,0-9,1.1-12.8,3.2c-3.8,2.1-6.7,5.1-8.8,8.9
	c-2.1,3.8-3.2,8.1-3.2,13.1c0,5,1.1,9.3,3.2,13.1c2.1,3.8,5.1,6.7,8.8,8.7c3.8,2.1,8,3.1,12.8,3.1c4,0,7.4-0.5,10.3-1.6
	c2.9-1.1,5.7-2.9,8.3-5.3v5.5H113.8z M101.4,92.2c-1.1,3.2-3,5.8-5.8,7.7c-2.7,1.9-5.9,2.8-9.4,2.8c-4.5,0-8.1-1.4-11-4.2
	c-2.9-2.8-4.3-6.5-4.3-11c0-4.5,1.4-8.2,4.3-11.1c2.9-2.9,6.5-4.3,11-4.3c3.5,0,6.7,1,9.5,2.9c2.8,1.9,4.7,4.5,5.7,7.7V92.2z"/>
<path class="st0" d="M58.4,73c2.5-4.5,6-8,10.5-10.6c2.8-1.6,5.9-2.6,9.1-3.2c0.8-0.2,1.6-0.3,2.5-0.5c2.3-0.3,4.5-0.2,6.7,0
	c3.9,0.3,7.4,1.1,10.6,2.4l0.1-12.7c-4.8-1.3-10.3-1.8-16.7-1.8c-9.6,0-18.3,3.9-24.4,8.7c-7.8,6.1-13.1,15.3-13.5,22.5h13.1
	C56.9,76.2,57.5,74.6,58.4,73z"/>
<path class="st0" d="M194.7,93.5c-1.4,8.3-9,22.8-31.7,22.8c-12.9,0-22.1-4.2-30.9-21.3c-4.3-8.4-8.5-15.9-13.9-29.7l0,28.5
	c6.8,21,18.6,36.6,45.7,36.6c23.5,0,46-18.7,46-36.8C206.4,93.5,196,93.5,194.7,93.5z"/>
<path class="st1" d="M178.3,65.5c-4.2-2.1-9-3.1-14.5-3.1c-5.5,0-10.3,1-14.5,3.1c-4.2,2.1-7.4,5-9.7,8.7c-2.3,3.8-3.4,8.2-3.4,13.2
	c0,5.2,1.1,9.6,3.4,13.4c2.3,3.8,5.5,6.6,9.7,8.6c4.2,2,9,3,14.5,3c5.5,0,10.3-1,14.5-3c4.2-2,7.4-4.9,9.7-8.6
	c2.3-3.8,3.4-8.2,3.4-13.4c0-5-1.1-9.4-3.4-13.2C185.7,70.4,182.5,67.5,178.3,65.5z M174.7,98.4c-2.7,2.8-6.3,4.3-10.8,4.3
	s-8.1-1.4-10.8-4.3c-2.7-2.8-4-6.5-4-11c0-4.8,1.3-8.5,4-11.2c2.7-2.7,6.3-4.1,10.8-4.1c4.6,0,8.2,1.4,10.8,4.1
	c2.7,2.7,4,6.5,4,11.2C178.7,91.9,177.3,95.6,174.7,98.4z"/>
</svg>
